<svg xmlns="http://www.w3.org/2000/svg" xmlns:xlink="http://www.w3.org/1999/xlink" width="177.631" height="120.072" viewBox="0 0 177.631 120.072"><defs><style>.a{fill:#515fbf;}.b{mix-blend-mode:screen;}.b,.d{isolation:isolate;}.c{fill:url(#a);}.d{mix-blend-mode:multiply;fill:url(#b);}.e{fill:#fff;font-size:40px;font-family:SFProDisplay-Bold, SF Pro Display;font-weight:700;letter-spacing:0.02em;}</style><linearGradient id="a" y1="0.5" x2="1" y2="0.5" gradientUnits="objectBoundingBox"><stop offset="0" stop-color="#f9ec31"/><stop offset="1" stop-color="#8cc63f"/></linearGradient><linearGradient id="b" x1="0.595" y1="0.215" x2="0.411" y2="0.738" gradientUnits="objectBoundingBox"><stop offset="0" stop-color="#6170d6"/><stop offset="1" stop-color="#fff" stop-opacity="0.129"/></linearGradient></defs><path class="a" d="M256.874,302.48l-67.457,39.2c-8.209,4.771-21.591,4.771-29.854,0l-67.9-39.2c-4.163-2.4-6.24-5.558-6.23-8.707l-.049,17.21c-.008,3.149,2.068,6.3,6.232,8.707l67.9,39.2c8.264,4.77,21.646,4.77,29.856,0l67.457-39.2c4.086-2.375,6.132-5.483,6.14-8.6l.049-17.21C263.006,297,260.961,300.105,256.874,302.48Z" transform="translate(-85.384 -242.399)"/><g class="b" transform="translate(0.049 2.639)"><path class="c" d="M256.777,301.01c8.264,4.77,8.308,12.522.084,17.3l-67.457,39.2c-8.209,4.771-21.591,4.771-29.855,0l-67.9-39.2c-8.276-4.78-8.306-12.524-.1-17.294l67.457-39.2c8.223-4.78,21.592-4.787,29.868-.008Z" transform="translate(-85.42 -258.229)"/></g><g transform="translate(0.049)"><path class="a" d="M256.777,299.085c8.264,4.77,8.308,12.522.084,17.3l-67.457,39.2c-8.209,4.771-21.591,4.771-29.855,0l-67.9-39.2c-8.276-4.778-8.306-12.522-.1-17.294l67.457-39.2c8.223-4.778,21.592-4.787,29.868-.008Z" transform="translate(-85.42 -256.304)"/></g><path class="d" d="M245.412,316.387l-30.444,17.694a32.189,32.189,0,0,1-6.706-2.875l-91.4-52.767c-.206-.117-.41-.241-.607-.358l31.306-18.192c8.221-4.776,21.592-4.782,29.864-.007l67.9,39.2C253.6,303.85,253.64,311.6,245.412,316.387Z" transform="translate(-73.926 -256.304)"/><text class="e" transform="translate(82.409 72.015) rotate(-41)"><tspan x="0" y="0">4</tspan></text></svg>