<svg xmlns="http://www.w3.org/2000/svg" width="1140.511" height="1268.379" viewBox="0 0 1140.511 1268.379"><defs><style>.a{opacity:0.04;}.b{fill:#f9ae08;}.c{fill:#4452b8;}</style></defs><g class="a" transform="translate(422.217 -164.437) rotate(31)"><path class="b" d="M710.138,854.592a104.369,104.369,0,0,1,87.7-102.97A76.336,76.336,0,0,0,756.5,739.429H466.45L847.3,271.039a76.223,76.223,0,0,0,13.394-24.833A92.907,92.907,0,0,0,876.6,194.152c0-51.365-41.64-93.037-93.293-93.822a69.571,69.571,0,0,0-20.347-3.044H521.147a70.794,70.794,0,0,0-70.591,70.591V198.27a70.794,70.794,0,0,0,70.591,70.591h86.6L192.225,779.9a76.763,76.763,0,0,0-16.15,60.529,88.526,88.526,0,0,0,25.763,56.043,94.949,94.949,0,0,0,26.532,19.915,76.194,76.194,0,0,0,38.244,10.286H739.1A104,104,0,0,1,710.138,854.592Z" transform="translate(68.733 119.065)"/><path class="c" d="M797.279,1061.967l-483.69-.048c-.8-.048-1.6-.112-2.419-.128q-.577-.024-1.154,0a94.539,94.539,0,0,1-62.308-21.084c-41.047-33.389-47.488-94.239-14.339-135.638l359.7-449.324a20.832,20.832,0,0,0-16.262-33.854H496.074L469.91,395.439a114.888,114.888,0,0,0,17.784-23.263,35.337,35.337,0,0,0,1.586-32.46c18.793-64.775-4.374-146.244-5.752-151a21.294,21.294,0,0,0-21.773-15.253c-26.275-55.675-61.747-70.014-79.964-73.507a15.376,15.376,0,0,0-13.666-9.821l-29.992-.769a12.544,12.544,0,0,0-13.09,13.811l1.971,25.955c.593,7.818,7.21,12.5,14.788,10.43l28.534-7.8c7.242-1.987,12.769-9.437,12.929-16.935,15.877,4.182,43.691,18.2,65.512,64.2a21.182,21.182,0,0,0-6.12,21.613c7.05,24.417,16.871,77.785,7.915,118.944a35.322,35.322,0,0,0-24.24,16.9,40.179,40.179,0,0,1-13.01,14.019l-1.073.673a41.107,41.107,0,0,1-19.53,5.431,35.167,35.167,0,0,0-26,13.282c-40.326-10.879-82.735-42.858-101.128-59.872a21.307,21.307,0,0,0-22.062-4.182c-31.386-40.1-31.466-71.232-28.1-87.333,6.777,3.22,15.925,1.634,20.924-3.957L256.1,192.495c5.223-5.832,4.021-13.859-2.708-17.88l-22.318-13.394a12.539,12.539,0,0,0-18.2,5.527l-12.753,27.189a15.35,15.35,0,0,0,2.66,16.614c-5.015,17.848-8.091,55.979,29.944,104.412a21.283,21.283,0,0,0,3.893,26.291c3.573,3.3,64.086,58.639,129.2,72.049a35.382,35.382,0,0,0,29.912,14.227,116.337,116.337,0,0,0,28.919-4.9l8.828-4.774,39.076,39.525a20.824,20.824,0,0,0,14.82,6.184h46.062L200.845,879.017c-47.392,59.216-38.163,146.244,20.572,194a135.573,135.573,0,0,0,89.128,30.457c1.138.08,2.275.144,3.429.144H797.279a135.66,135.66,0,0,0,79.739-25.843,103.844,103.844,0,0,1-54.537-19.338A94.225,94.225,0,0,1,797.279,1061.967Z" transform="translate(0 0)"/><path class="c" d="M771.872,682.627a104.406,104.406,0,0,0-104,95.616H220.011l514.1-654.207A13.755,13.755,0,0,0,723.3,101.782H526.407a13.754,13.754,0,0,0,0,27.509H695L180.9,783.482a13.755,13.755,0,0,0,10.815,22.254h477.49l-.016-.016A104.4,104.4,0,1,0,771.872,682.627Zm0,166.464a62.035,62.035,0,1,1,62.035-62.035A62.034,62.034,0,0,1,771.872,849.09Z" transform="translate(111.426 186.601)"/><path class="c" d="M577.059,137.845h.032A169.237,169.237,0,0,0,531.75,107.9c-1.458-.673-2.932-1.314-4.406-1.939-1.074-.433-2.179-.849-3.268-1.282-2.419-.945-4.855-1.842-7.322-2.628-1.266-.417-2.5-.865-3.8-1.25l.176.16a134.678,134.678,0,0,0-37.843-5.479H213.146a20.836,20.836,0,0,0,0,41.672H475.29a93.075,93.075,0,0,1,50.276,14.74,111.546,111.546,0,0,1,23.456,16.887,95.8,95.8,0,0,1,27.461,40.647c.464,1.217.817,2.227,1.089,3.028.112.384.24.769.353,1.137.176.577.272.9.272.9l-.032.016a97,97,0,0,1-17.3,87.654l-353.195,441.2a20.832,20.832,0,0,0,16.262,33.854H470.308a93.9,93.9,0,0,1,41.88,9.9,103.825,103.825,0,0,1,44.139-9.885,106.661,106.661,0,0,1,12.865.865,136.278,136.278,0,0,0-98.885-42.553H267.3L593.385,328.2C639.591,270.487,631.949,186.31,577.059,137.845Z" transform="translate(326.971 91.996)"/></g></svg>