<svg xmlns="http://www.w3.org/2000/svg" width="381.555" height="570.43" viewBox="0 0 381.555 570.43"><defs><style>.a{fill:none;mix-blend-mode:multiply;isolation:isolate;}.b{fill:#4452b8;}</style></defs><g transform="translate(0)"><line class="a" x1="194.882" y1="275.299" transform="translate(73.294 198.149)"/><line class="a" x1="194.882" y1="275.299" transform="translate(104.692 21.108)"/><g transform="translate(0)"><path class="b" d="M466.328,120.61q36.086,49.818,72.173,99.639,57.516,79.406,115.035,158.812,13.2,18.227,26.4,36.455c3.694,5.1.836,12.845-4.152,15.832-5.8,3.477-12.186.883-15.832-4.152q-36.086-49.819-72.171-99.637Q530.266,248.153,472.75,168.745l-26.406-36.453c-3.694-5.1-.836-12.845,4.152-15.834,5.8-3.477,12.186-.882,15.832,4.152Z" transform="translate(-444.665 -114.866)"/></g><g transform="translate(159.036 84.498)"><path class="b" d="M473.618,42.433q36.551,50.46,73.1,100.92,58.259,80.429,116.517,160.859,13.372,18.461,26.746,36.923c2.215,3.059-2.867,5.986-5.061,2.959q-36.551-50.46-73.1-100.922L495.3,82.315Q481.931,63.85,468.557,45.39c-2.215-3.057,2.867-5.986,5.062-2.957Z" transform="translate(-468.01 -41.158)"/></g><g transform="translate(57.998 404.235)"><path class="b" d="M14.009,328.656l37.71,52.061L111.824,463.7l13.8,19.047c1.931,2.665.437,6.713-2.169,8.273-3.033,1.817-6.367.461-8.273-2.169l-37.71-52.061L17.363,353.807l-13.8-19.048c-1.93-2.664-.437-6.712,2.169-8.272,3.033-1.817,6.368-.462,8.273,2.17Z" transform="translate(-2.69 -325.655)"/></g></g></svg>