<svg xmlns="http://www.w3.org/2000/svg" width="111" height="111" viewBox="0 0 111 111"><defs><style>.a{fill:#fff;stroke:#6170d6;stroke-width:5px;}.b{fill:#6170d6;}.c{stroke:none;}.d{fill:none;}</style></defs><g transform="translate(17 -10.409)"><g class="a" transform="translate(-17 10.409)"><circle class="c" cx="55.5" cy="55.5" r="55.5"/><circle class="d" cx="55.5" cy="55.5" r="53"/></g><g transform="translate(8 -20.597)"><path class="b" d="M317.494,322.689h-9.05a29.143,29.143,0,0,1-9,8.912h18.052v6.681l13.514-11.136-13.514-11.138Z" transform="matrix(0.875, 0.485, -0.485, 0.875, -70.847, -328.711)"/><path class="b" d="M29.276,101.688A24.494,24.494,0,0,0,31.335,52.8v-6.8L17.969,57.145,31.335,68.281V61.825a15.558,15.558,0,0,1-2.228,30.961H0v8.91H29.286S29.281,101.691,29.276,101.688Z" transform="translate(0 0)"/><path class="b" d="M44.625,161.577a15.493,15.493,0,0,1,1.746-23.717l-7-5.833a24.247,24.247,0,0,0-5.617,29.549Z" transform="translate(-26.396 -73.246)"/></g></g></svg>