<svg width="32" height="32" xmlns="http://www.w3.org/2000/svg">

 <title/>
 <g>
  <title>background</title>
  <rect fill="none" id="canvas_background" height="402" width="582" y="-1" x="-1"/>
 </g>
 <g>
  <title>Layer 1</title>
  <path fill="#4452b8" id="svg_1" d="m15,7l0,15.86l-4.36,-3.63a1,1 0 0 0 -1.28,1.54l6,5l0.15,0.09l0.13,0.07a1,1 0 0 0 0.36,0.07l0,0a1,1 0 0 0 0.36,-0.07l0.13,-0.07l0.15,-0.09l6,-5a1,1 0 0 0 0.36,-0.77a1,1 0 0 0 -0.23,-0.64a1,1 0 0 0 -1.41,-0.13l-4.36,3.63l0,-15.86a1,1 0 0 0 -2,0z" class="cls-1"/>
  <path fill="#4452b8" id="svg_2" d="0" class="cls-2"/>
 </g>
</svg>