<?xml version="1.0" encoding="utf-8"?>
<!-- Generator: Adobe Illustrator 24.0.1, SVG Export Plug-In . SVG Version: 6.00 Build 0)  -->
<svg version="1.1" id="Layer_1" xmlns="http://www.w3.org/2000/svg" xmlns:xlink="http://www.w3.org/1999/xlink" x="0px" y="0px"
	 viewBox="0 0 197.4 189.6" style="enable-background:new 0 0 197.4 189.6;" xml:space="preserve">
<style type="text/css">
	.st0{fill:#DEE0EF;}
	.st1{fill:url(#SVGID_1_);}
	.st2{fill:url(#SVGID_2_);}
	.st3{fill:url(#SVGID_3_);}
	.st4{fill:url(#SVGID_4_);}
	.st5{fill:url(#SVGID_5_);}
	.st6{fill:url(#SVGID_6_);}
	.st7{fill:#FFFFFF;}
	.st8{fill:url(#SVGID_7_);}
	.st9{fill:url(#SVGID_8_);}
	.st10{fill:url(#SVGID_9_);}
	.st11{fill:url(#SVGID_10_);}
	.st12{fill:url(#SVGID_11_);}
	.st13{fill:url(#SVGID_12_);}
	.st14{fill:url(#SVGID_13_);}
	.st15{fill:url(#SVGID_14_);}
	.st16{fill:url(#SVGID_15_);}
	.st17{fill:#00BE5F;}
</style>
<g transform="translate(-232.764 -1136.919)">
	<path class="st0" d="M279.8,1203.9c54.9-49.7,94.4-80.3,118.6,12.3c24.2,92.6-66.7,80.5-96.3,77.4
		C272.5,1290.6,224.9,1253.7,279.8,1203.9z"/>
	<g transform="translate(277 1156.066)">
		
			<linearGradient id="SVGID_1_" gradientUnits="userSpaceOnUse" x1="-620.2018" y1="456.7409" x2="-619.8289" y2="457.4309" gradientTransform="matrix(86.693 0 0 -90.612 53801.6289 41490.7344)">
			<stop  offset="0" style="stop-color:#6170D6"/>
			<stop  offset="1" style="stop-color:#4452B8"/>
		</linearGradient>
		<path class="st1" d="M90.4,27.3H11.7c-2.2,0-4,1.8-4,4v82.6c0,2.2,1.8,4,4,4h78.7c2.2,0,4-1.8,4-4V31.3
			C94.4,29,92.6,27.3,90.4,27.3z"/>
		
			<linearGradient id="SVGID_2_" gradientUnits="userSpaceOnUse" x1="-620.003" y1="454.1629" x2="-619.36" y2="455.4369" gradientTransform="matrix(86.7 0 0 -47.381 53806.0195 21610.834)">
			<stop  offset="0" style="stop-color:#C2CECE"/>
			<stop  offset="1" style="stop-color:#97AAAA"/>
		</linearGradient>
		<path class="st2" d="M90.4,117.9H11.7c-2.2,0-4-1.8-4-4V70.5h86.7v43.4C94.4,116.1,92.6,117.9,90.4,117.9
			C90.4,117.9,90.4,117.9,90.4,117.9z"/>
		
			<linearGradient id="SVGID_3_" gradientUnits="userSpaceOnUse" x1="-620.0117" y1="443.0589" x2="-620.0117" y2="442.3878" gradientTransform="matrix(86.7 0 0 -12.408 53806.0195 5528.3999)">
			<stop  offset="0" style="stop-color:#C2CECE;stop-opacity:0"/>
			<stop  offset="0.179" style="stop-color:#AFBCBC;stop-opacity:0.18"/>
			<stop  offset="1" style="stop-color:#5B6A6A"/>
		</linearGradient>
		<path class="st3" d="M90.4,117.9H11.7c-2.2,0-4-1.8-4-4v-8.4h86.7v8.4C94.4,116.1,92.6,117.9,90.4,117.9
			C90.4,117.9,90.4,117.9,90.4,117.9z"/>
		
			<linearGradient id="SVGID_4_" gradientUnits="userSpaceOnUse" x1="-620.9323" y1="452.642" x2="-620.0553" y2="453.706" gradientTransform="matrix(102.0095 0 0 -37.903 63401.0625 17242.6191)">
			<stop  offset="0" style="stop-color:#6170D6"/>
			<stop  offset="1" style="stop-color:#4452B8"/>
		</linearGradient>
		<path class="st4" d="M98,108.1H4c-2.2,0-4-1.8-4-4c0-0.3,0-0.6,0.1-0.9l7.5-33h86.7l7.6,33c0.5,2.2-0.8,4.3-3,4.8
			C98.6,108.1,98.3,108.1,98,108.1z"/>
		
			<linearGradient id="SVGID_5_" gradientUnits="userSpaceOnUse" x1="-620.2656" y1="453.3194" x2="-620.8666" y2="451.8224" gradientTransform="matrix(94.3566 0 0 -37.905 58608.4883 17243.5313)">
			<stop  offset="0" style="stop-color:#6170D6"/>
			<stop  offset="1" style="stop-color:#4452B8"/>
		</linearGradient>
		<path class="st5" d="M98,108.1c2.2,0,4-1.8,4-4c0-0.3,0-0.6-0.1-0.9l-7.6-33H7.7l37.9,37.9L98,108.1z"/>
		
			<linearGradient id="SVGID_6_" gradientUnits="userSpaceOnUse" x1="-619.4093" y1="436.8197" x2="-619.5164" y2="435.6387" gradientTransform="matrix(86.7 0 0 -9.742 53806.0156 4302.438)">
			<stop  offset="0" style="stop-color:#C2CECE;stop-opacity:0"/>
			<stop  offset="0.179" style="stop-color:#AFBCBC;stop-opacity:0.18"/>
			<stop  offset="1" style="stop-color:#5B6A6A"/>
		</linearGradient>
		<path class="st6" d="M94.4,108.1H7.7v0.1l9.6,9.6h73.1c2.2,0,4-1.8,4-4L94.4,108.1z"/>
		<g transform="translate(30.312 40.951)">
			<path class="st7" d="M0,37.2V20.3c0-4.4,1.2-7.7,3.5-9.8S9.1,7.4,13,7.4s7.1,1,9.5,3.1s3.6,5.4,3.6,9.8v16.9
				c0,4.5-1.2,7.7-3.6,9.8c-2.4,2.1-5.5,3.1-9.5,3.1c-3.9,0-7.1-1-9.5-3.1S0,41.7,0,37.2z M6.2,37.2c0,5,2.3,7.5,6.9,7.5
				c1.9,0.1,3.7-0.6,5.1-1.9c1.2-1.2,1.8-3.1,1.8-5.6V20.3c0-2.5-0.6-4.4-1.8-5.6c-1.4-1.3-3.2-2-5.1-1.9c-4.6,0-6.9,2.5-6.9,7.5
				V37.2z"/>
			<path class="st7" d="M29.8,16.1c0-0.9,0.4-1.8,1.2-2.4l6-5.8c0.4-0.4,1-0.7,1.6-0.6c0.7,0,1.3,0.2,1.9,0.6
				c0.5,0.3,0.8,0.9,0.8,1.5v38.4c0,0.6-0.4,1.2-0.9,1.5c-0.7,0.4-1.4,0.6-2.1,0.6c-0.8,0-1.5-0.2-2.2-0.6c-0.6-0.3-0.9-0.9-0.9-1.5
				V15.5l-2,2.6c-0.3,0.4-0.8,0.6-1.3,0.6c-0.6,0-1.1-0.3-1.5-0.8C30.1,17.4,29.8,16.8,29.8,16.1z"/>
		</g>
		<g transform="translate(30.312 62.905)">
			
				<linearGradient id="SVGID_7_" gradientUnits="userSpaceOnUse" x1="-634.68" y1="383.9091" x2="-634.68" y2="382.5411" gradientTransform="matrix(26.064 0 0 -20.886 16555.3379 8023.5347)">
				<stop  offset="0" style="stop-color:#C2CECE;stop-opacity:0"/>
				<stop  offset="0.179" style="stop-color:#AFBCBC;stop-opacity:0.18"/>
				<stop  offset="1" style="stop-color:#5B6A6A"/>
			</linearGradient>
			<path class="st8" d="M19.9,7.3v7.9c0,2.5-0.6,4.4-1.8,5.6c-1.4,1.3-3.2,2-5.1,1.9c-4.6,0-6.9-2.5-6.9-7.5V7.3H0v7.9
				c0,4.5,1.2,7.7,3.5,9.8c2.4,2.1,5.5,3.1,9.5,3.1c3.9,0,7.1-1,9.5-3.1c2.4-2.1,3.6-5.4,3.6-9.8V7.3H19.9z"/>
			
				<linearGradient id="SVGID_8_" gradientUnits="userSpaceOnUse" x1="-562.2968" y1="383.6713" x2="-562.2968" y2="382.2813" gradientTransform="matrix(6.153 0 0 -20.539 3498.0986 7885.4526)">
				<stop  offset="0" style="stop-color:#C2CECE;stop-opacity:0"/>
				<stop  offset="0.179" style="stop-color:#AFBCBC;stop-opacity:0.18"/>
				<stop  offset="1" style="stop-color:#5B6A6A"/>
			</linearGradient>
			<path class="st9" d="M35.2,7.3v18.5c0,0.6,0.3,1.2,0.9,1.5c0.7,0.4,1.4,0.6,2.2,0.5c0.8,0,1.5-0.2,2.1-0.5
				c0.6-0.3,0.9-0.9,0.9-1.5V7.3H35.2z"/>
		</g>
		
			<linearGradient id="SVGID_9_" gradientUnits="userSpaceOnUse" x1="-584.2428" y1="456.7188" x2="-585.6548" y2="456.7808" gradientTransform="matrix(13.5499 0 0 -80.87 8004.4253 37001.1133)">
			<stop  offset="0" style="stop-color:#008BF2;stop-opacity:0"/>
			<stop  offset="1" style="stop-color:#0046E2"/>
		</linearGradient>
		<path class="st10" d="M101.9,103.2l-7.6-33v-39c0-2.2-1.8-4-4-4h-1.9c2.2,0,4,1.8,4,4v39l7.6,33c0.5,2.2-0.8,4.3-3,4.8
			c-0.3,0.1-0.6,0.1-0.9,0.1H98c2.2,0,4-1.8,4-4C102,103.8,102,103.5,101.9,103.2z"/>
		
			<linearGradient id="SVGID_10_" gradientUnits="userSpaceOnUse" x1="-593.6769" y1="441.3689" x2="-594.1229" y2="440.9399" gradientTransform="matrix(16.6122 0 0 -17.28 9869.6221 7695.4551)">
			<stop  offset="0" style="stop-color:#008BF2;stop-opacity:0"/>
			<stop  offset="1" style="stop-color:#0046E2"/>
		</linearGradient>
		<path class="st11" d="M34,34.4c-0.8-0.7-1.2-1.7-1.2-2.7v-4.4h7.5l6.1,6.1c1.9,1.9,3,4.6,3,7.3l0,0c0,2-1.5,3.7-3.6,3.8
			c-1.1,0.1-2.2-0.4-2.9-1.2L34,34.4z"/>
		
			<linearGradient id="SVGID_11_" gradientUnits="userSpaceOnUse" x1="-548.7322" y1="432.48" x2="-548.7322" y2="435.374" gradientTransform="matrix(7.474 0 0 -13.88 4137.8174 6122.8301)">
			<stop  offset="0" style="stop-color:#FFC200"/>
			<stop  offset="0.268" style="stop-color:#FFBB00"/>
			<stop  offset="0.659" style="stop-color:#FFA801"/>
			<stop  offset="1" style="stop-color:#FF9102"/>
		</linearGradient>
		<path class="st12" d="M36.6,35.4L36.6,35.4c-2.1,0-3.7-1.7-3.7-3.7v-6.4c0-2.1,1.7-3.7,3.7-3.7l0,0c2.1,0,3.7,1.7,3.7,3.7v6.4
			C40.3,33.7,38.7,35.4,36.6,35.4z"/>
		
			<linearGradient id="SVGID_12_" gradientUnits="userSpaceOnUse" x1="-471.8535" y1="439.076" x2="-471.0075" y2="439.076" gradientTransform="matrix(3.737 0 0 -13.88 1797.5736 6122.8306)">
			<stop  offset="0" style="stop-color:#FFC200;stop-opacity:0"/>
			<stop  offset="0.203" style="stop-color:#FFBB00;stop-opacity:0.204"/>
			<stop  offset="0.499" style="stop-color:#FFA700;stop-opacity:0.498"/>
			<stop  offset="0.852" style="stop-color:#FF8800;stop-opacity:0.851"/>
			<stop  offset="1" style="stop-color:#FF7800"/>
		</linearGradient>
		<path class="st13" d="M36.6,21.5v13.9c2.1,0,3.7-1.7,3.7-3.7v-6.4C40.3,23.2,38.7,21.5,36.6,21.5z"/>
		
			<linearGradient id="SVGID_13_" gradientUnits="userSpaceOnUse" x1="-593.7298" y1="441.3224" x2="-594.1768" y2="440.8934" gradientTransform="matrix(16.6122 0 0 -17.28 9896.7939 7695.4531)">
			<stop  offset="0" style="stop-color:#008BF2;stop-opacity:0"/>
			<stop  offset="1" style="stop-color:#0046E2"/>
		</linearGradient>
		<path class="st14" d="M61.2,34.4c-0.8-0.7-1.2-1.7-1.2-2.7v-4.4h7.5l6.1,6.1c1.9,1.9,3,4.6,3,7.3l0,0c0,2-1.5,3.7-3.6,3.8
			c-1.1,0.1-2.2-0.4-2.9-1.2L61.2,34.4z"/>
		
			<linearGradient id="SVGID_14_" gradientUnits="userSpaceOnUse" x1="-548.7322" y1="432.48" x2="-548.7322" y2="435.374" gradientTransform="matrix(7.474 0 0 -13.88 4164.9761 6122.8301)">
			<stop  offset="0" style="stop-color:#FFC200"/>
			<stop  offset="0.268" style="stop-color:#FFBB00"/>
			<stop  offset="0.659" style="stop-color:#FFA801"/>
			<stop  offset="1" style="stop-color:#FF9102"/>
		</linearGradient>
		<path class="st15" d="M63.8,35.4L63.8,35.4c-2.1,0-3.7-1.7-3.7-3.7v-6.4c0-2.1,1.7-3.7,3.7-3.7l0,0c2.1,0,3.7,1.7,3.7,3.7v6.4
			C67.5,33.7,65.8,35.4,63.8,35.4z"/>
		
			<linearGradient id="SVGID_15_" gradientUnits="userSpaceOnUse" x1="-472.3075" y1="439.076" x2="-471.4625" y2="439.076" gradientTransform="matrix(3.737 0 0 -13.88 1824.7325 6122.8306)">
			<stop  offset="0" style="stop-color:#FFC200;stop-opacity:0"/>
			<stop  offset="0.203" style="stop-color:#FFBB00;stop-opacity:0.204"/>
			<stop  offset="0.499" style="stop-color:#FFA700;stop-opacity:0.498"/>
			<stop  offset="0.852" style="stop-color:#FF8800;stop-opacity:0.851"/>
			<stop  offset="1" style="stop-color:#FF7800"/>
		</linearGradient>
		<path class="st16" d="M63.8,21.5v13.9c2.1,0,3.7-1.7,3.7-3.7v-6.4C67.5,23.2,65.8,21.5,63.8,21.5z"/>
	</g>
	<g transform="translate(4 -62)">
		<circle class="st17" cx="368" cy="1320.3" r="14"/>
	</g>
</g>
</svg>
