<?xml version="1.0" encoding="utf-8"?>
<!-- Generator: Adobe Illustrator 24.0.1, SVG Export Plug-In . SVG Version: 6.00 Build 0)  -->
<svg version="1.1" id="Layer_1" xmlns="http://www.w3.org/2000/svg" xmlns:xlink="http://www.w3.org/1999/xlink" x="0px" y="0px"
	 viewBox="0 0 197.4 189.6" style="enable-background:new 0 0 197.4 189.6;" xml:space="preserve">
<style type="text/css">
	.st0{fill:#DEE0EF;}
	.st1{fill:#F9AE08;}
	.st2{fill:#F99308;}
	.st3{fill:#FFFFFF;}
	.st4{fill:#DDDDDD;}
	.st5{fill:#6170D6;}
	.st6{fill:#4452B8;}
</style>
<g transform="translate(-248.582 -1158.586)">
	<path class="st0" d="M328.9,1199.9c74.7,5.6,124.9,12.8,78.6,86s-104.6,5.7-124.3-15.8C263.6,1248.6,254.2,1194.3,328.9,1199.9z"/>
	<g transform="translate(289.143 1166.033)">
		<g transform="translate(57.267 2.286)">
			<circle class="st1" cx="36.8" cy="44.5" r="23.9"/>
			<g transform="translate(3.446 3.446)">
				<path class="st2" d="M46.1,20.9c7,11.2,3.7,25.9-7.5,33c-7.8,4.9-17.7,4.9-25.5,0c7,11.2,21.8,14.5,33,7.5
					c11.2-7,14.5-21.8,7.5-33C51.7,25.3,49.1,22.8,46.1,20.9L46.1,20.9z"/>
			</g>
			<g transform="translate(9.36 15.341)">
				<path class="st3" d="M41.5,22.7L35.7,26c-0.2,0.1-0.5,0.1-0.7-0.2c0-0.1-0.1-0.2-0.1-0.2v-1.5c0-1.3-1.1-2.4-2.4-2.4l0,0H15.9
					c-1.3,0-2.4,1.1-2.4,2.4l0,0v11.1c0,1.3,1.1,2.4,2.4,2.4l0,0h16.6c1.3,0,2.4-1.1,2.4-2.4l0,0v-1.5c0-0.3,0.2-0.5,0.5-0.5
					c0.1,0,0.2,0,0.2,0.1l5.8,3.4c0.6,0.3,1.3,0.1,1.6-0.4c0.1-0.2,0.2-0.4,0.2-0.6V23.7c0-0.7-0.5-1.2-1.2-1.2
					C41.9,22.5,41.6,22.6,41.5,22.7z"/>
			</g>
			<g transform="translate(33.566 20.378)">
				<path class="st4" d="M17.3,31.6c0.6,0.3,1.3,0.1,1.6-0.4c0.1-0.2,0.2-0.4,0.2-0.6v-8.5c-0.7,3-2,5.9-3.8,8.4L17.3,31.6z"/>
			</g>
		</g>
		<g transform="translate(-0.001 1.967)">
			<g transform="translate(0 7.641)">
				<path class="st5" d="M107.9,96.2L92.1,80.4c-2.7-2.7-7.2-2.7-9.9,0c0,0,0,0,0,0l-8.6,8.6c-2.4,2.4-3.6,5.6-3.4,9l0.1,1.8
					c0,0.4-0.3,0.8-0.7,0.8c-0.1,0-0.1,0-0.2,0c-4-0.8-7.7-2.8-10.6-5.7L36.2,72.3c-2.9-2.9-4.9-6.6-5.7-10.6
					c-0.1-0.4,0.2-0.8,0.6-0.9c0.1,0,0.1,0,0.2,0l1.8,0.1c3.3,0.2,6.6-1,9-3.4l8.6-8.6c2.7-2.7,2.7-7.2,0-9.9c0,0,0,0,0,0L34.9,23.2
					c-2.7-2.7-7.2-2.7-9.9,0c0,0,0,0,0,0c-2.2,2-4.1,4.2-5.9,6.5C4.5,46.5,5.5,71.7,21.1,87.4L43.7,110
					c15.7,15.7,40.8,16.6,57.6,2.1c2.4-1.8,4.5-3.7,6.5-5.9C110.7,103.4,110.7,99,107.9,96.2L107.9,96.2z"/>
			</g>
			<g transform="translate(29.687 72.597)">
				<path class="st6" d="M78.2,31.3l-5.5-5.5c1.6,2.8,1.1,6.2-1.2,8.5c-2,2.2-4.2,4.2-6.6,6c-15.4,13.3-38,13.9-54.1,1.6l3.2,3.2
					c15.7,15.7,40.8,16.6,57.6,2.1c2.4-1.8,4.5-3.7,6.5-5.9C81,38.5,81,34,78.2,31.3C78.2,31.3,78.2,31.3,78.2,31.3z"/>
			</g>
			<g transform="translate(32.598)">
				<g transform="translate(0 7.274)">
					<path class="st6" d="M18.2,29.9c-0.9,0-1.7-0.7-1.7-1.7c0-2.1-1.7-3.7-3.8-3.8c-0.9,0-1.7-0.8-1.7-1.7c0-0.9,0.8-1.7,1.7-1.7
						l0,0c3.9,0.1,7,3.2,7.1,7.1C19.9,29.1,19.2,29.9,18.2,29.9L18.2,29.9z"/>
				</g>
				<g transform="translate(0.892)">
					<path class="st6" d="M25.1,36.2c-0.9,0-1.6-0.7-1.7-1.6C23,29,18.4,24.4,12.7,24c-0.9-0.1-1.6-0.9-1.6-1.8
						c0.1-0.9,0.9-1.6,1.8-1.6c7.4,0.6,13.2,6.4,13.8,13.8c0.1,0.9-0.6,1.7-1.6,1.8C25.2,36.2,25.1,36.2,25.1,36.2L25.1,36.2z"/>
				</g>
			</g>
		</g>
	</g>
</g>
</svg>
