<svg xmlns="http://www.w3.org/2000/svg" width="111" height="111" viewBox="0 0 111 111"><defs><style>.a{fill:#fff;stroke:#6170d6;stroke-width:5px;}.b{fill:#6170d6;}.c{stroke:none;}.d{fill:none;}</style></defs><g transform="translate(17 -10.409)"><g class="a" transform="translate(-17 10.409)"><circle class="c" cx="55.5" cy="55.5" r="55.5"/><circle class="d" cx="55.5" cy="55.5" r="53"/></g><g transform="translate(0 37.856)"><path class="b" d="M32.7,10.3v21.98a6.22,6.22,0,0,1-5.754.9l-.636-.234a10.248,10.248,0,0,0-1.873-11.809L13.16,9.865,22.126,6.72Z" transform="translate(30.866 4.155)"/><path class="b" d="M24.661,27.936,36.471,39.545v.033A6.491,6.491,0,0,1,34.8,42.422a6.966,6.966,0,0,1-5.219,2.007L17,31.85a1.32,1.32,0,0,0-.435,1,1.366,1.366,0,0,0,.636,1.171L29.144,45.734a6.663,6.663,0,0,1-1.439,2.175,7.01,7.01,0,0,1-4.985,2.041,6.863,6.863,0,0,1-4.817-1.94l-7.36-6.657A14.343,14.343,0,0,0,4.99,38.207a.926.926,0,0,0,.033-.3V9.8l8.6-3.546a8.726,8.726,0,0,1,7.527.4l-.535.268A10.121,10.121,0,0,0,17.97,23.152a10.122,10.122,0,0,0,6.289,2.911,1.179,1.179,0,0,0-.234.7,1.327,1.327,0,0,0,.636,1.171Z" transform="translate(11.704 1.506)"/><path class="b" d="M28.454,23.364A5.429,5.429,0,0,1,27.416,24.8a7.117,7.117,0,0,1-4.449,2.175L10.89,14.933h.4a10.426,10.426,0,0,0,4.617-1.1l1.071-.569,5.754-2.911L27.383,15l.033.033A6.94,6.94,0,0,1,28.454,23.364Z" transform="translate(25.542 12.669)"/><path class="b" d="M10.873,39.454H2.509A2.51,2.51,0,0,1,0,36.945V8.509A2.51,2.51,0,0,1,2.509,6h8.364a2.51,2.51,0,0,1,2.509,2.509V36.945A2.51,2.51,0,0,1,10.873,39.454Z" transform="translate(0 2.466)"/><path class="b" d="M30.873,39.454H22.509A2.51,2.51,0,0,1,20,36.945V8.509A2.51,2.51,0,0,1,22.509,6h8.364a2.51,2.51,0,0,1,2.509,2.509V36.945A2.51,2.51,0,0,1,30.873,39.454Z" transform="translate(46.909 2.466)"/><path class="b" d="M38.942,8.8c-.033,0-.067-.033-.134-.033L31.147,5.623a8.842,8.842,0,0,0-7.36.268l-9.133,4.583-1.907.937a6.776,6.776,0,0,0-1.773,10.873,6.791,6.791,0,0,0,7.862,1.238l1.1-.569,4.784-2.409,13.315-6.691,4.449,1.84V10.975a2.167,2.167,0,0,1,.067-.669Z" transform="translate(21.075 0)"/></g></g></svg>