<svg xmlns="http://www.w3.org/2000/svg" width="111" height="111" viewBox="0 0 111 111"><defs><style>.a{fill:#fff;}.b,.d{fill:#6170d6;}.c,.d{stroke:none;}</style></defs><g transform="translate(17 -10.409)"><g class="a" transform="translate(-17 10.409)"><path class="c" d="M 55.5 108.5 C 48.34394836425781 108.5 41.40326690673828 107.0990295410156 34.87078475952148 104.3360137939453 C 28.55986595153809 101.6667327880859 22.89158248901367 97.84490203857422 18.02334976196289 92.97664642333984 C 13.15509986877441 88.10841369628906 9.333266258239746 82.44013214111328 6.663983345031738 76.12921905517578 C 3.900966644287109 69.59673309326172 2.5 62.65605163574219 2.5 55.5 C 2.5 48.34394836425781 3.900966644287109 41.40326690673828 6.663983345031738 34.87078475952148 C 9.333266258239746 28.55986595153809 13.15509986877441 22.89158248901367 18.02334976196289 18.02334976196289 C 22.89158248901367 13.15509986877441 28.55986595153809 9.333266258239746 34.87078475952148 6.663983345031738 C 41.40326690673828 3.900966644287109 48.34394836425781 2.5 55.5 2.5 C 62.65605163574219 2.5 69.59673309326172 3.900966644287109 76.12921905517578 6.663983345031738 C 82.44013214111328 9.333266258239746 88.10841369628906 13.15509986877441 92.97664642333984 18.02334976196289 C 97.84490203857422 22.89158248901367 101.6667327880859 28.55986595153809 104.3360137939453 34.87078475952148 C 107.0990295410156 41.40326690673828 108.5 48.34394836425781 108.5 55.5 C 108.5 62.65605163574219 107.0990295410156 69.59673309326172 104.3360137939453 76.12921905517578 C 101.6667327880859 82.44013214111328 97.84490203857422 88.10841369628906 92.97664642333984 92.97664642333984 C 88.10841369628906 97.84490203857422 82.44013214111328 101.6667327880859 76.12921905517578 104.3360137939453 C 69.59673309326172 107.0990295410156 62.65605163574219 108.5 55.5 108.5 Z"/><path class="d" d="M 55.5 5 C 48.68033981323242 5 42.06732177734375 6.334518432617188 35.84465789794922 8.966476440429688 C 29.83174133300781 11.50974273681641 24.43055725097656 15.15165710449219 19.79109954833984 19.79109954833984 C 15.15165710449219 24.43055725097656 11.50974273681641 29.83174133300781 8.966476440429688 35.84465789794922 C 6.334518432617188 42.06732177734375 5 48.68033981323242 5 55.5 C 5 62.31966018676758 6.334518432617188 68.93267822265625 8.966476440429688 75.15533447265625 C 11.50974273681641 81.16825866699219 15.15165710449219 86.56944274902344 19.79109954833984 91.20890045166016 C 24.43055725097656 95.84834289550781 29.83174133300781 99.49025726318359 35.84465789794922 102.0335235595703 C 42.06732177734375 104.6654815673828 48.68033981323242 106 55.5 106 C 62.31966018676758 106 68.93267822265625 104.6654815673828 75.15533447265625 102.0335235595703 C 81.16825866699219 99.49025726318359 86.56944274902344 95.84834289550781 91.20890045166016 91.20890045166016 C 95.84834289550781 86.56944274902344 99.49025726318359 81.16825866699219 102.0335235595703 75.15533447265625 C 104.6654815673828 68.93267822265625 106 62.31966018676758 106 55.5 C 106 48.68033981323242 104.6654815673828 42.06732177734375 102.0335235595703 35.84465789794922 C 99.49025726318359 29.83174133300781 95.84834289550781 24.43055725097656 91.20890045166016 19.79109954833984 C 86.56944274902344 15.15165710449219 81.16825866699219 11.50974273681641 75.15533447265625 8.966476440429688 C 68.93267822265625 6.334518432617188 62.31966018676758 5 55.5 5 M 55.5 0 C 86.15180206298828 0 111 24.84819793701172 111 55.5 C 111 86.15180206298828 86.15180206298828 111 55.5 111 C 24.84819793701172 111 0 86.15180206298828 0 55.5 C 0 24.84819793701172 24.84819793701172 0 55.5 0 Z"/></g><g transform="translate(-29.983 -23.591)"><ellipse class="b" cx="9.5" cy="10" rx="9.5" ry="10" transform="translate(59.982 56)"/><path class="b" d="M177.934,233.289,181.263,200H128l3.329,33.289Zm-23.3-21.638a4.993,4.993,0,1,1-4.993,4.993A4.993,4.993,0,0,1,154.632,211.651Z" transform="translate(-85.251 -114.04)"/><path class="b" d="M197.96,152h-23.3A6.658,6.658,0,0,0,168,158.658h36.618A6.658,6.658,0,0,0,197.96,152Z" transform="translate(-116.929 -76.026)"/></g></g></svg>