<?xml version="1.0" encoding="utf-8"?>
<!-- Generator: Adobe Illustrator 24.0.1, SVG Export Plug-In . SVG Version: 6.00 Build 0)  -->
<svg version="1.1" id="Layer_1" xmlns="http://www.w3.org/2000/svg" xmlns:xlink="http://www.w3.org/1999/xlink" x="0px" y="0px"
	 viewBox="0 0 197.4 189.6" style="enable-background:new 0 0 197.4 189.6;" xml:space="preserve">
<style type="text/css">
	.st0{fill:#DEE0EF;}
	.st1{fill:#4452B8;}
	.st2{fill:#6170D6;}
	.st3{fill:#8D99EA;}
	.st4{fill:#FFCA5D;}
	.st5{fill:#F6B545;}
	.st6{fill:#FFCB5B;}
	.st7{fill:#FFE27A;}
	.st8{fill:#F19920;}
	.st9{fill:#E78825;}
</style>
<g transform="translate(-264.307 -1155.246)">
	<path class="st0" d="M395.5,1306.8c-72.4,21.7-122.1,32.4-103.2-67.5c18.9-99.9,96.7-45.6,122.5-28.7
		C440.6,1227.5,467.9,1285.1,395.5,1306.8z"/>
	<g transform="matrix(-0.966, 0.259, -0.259, -0.966, 405.764, 1268.229)">
		<path class="st1" d="M95.5,53.3H-23.7c-3.3,0-5.9-2.7-6-6v-65.5c0-3.3,2.7-5.9,6-6H95.5c3.3,0,5.9,2.7,6,6v65.5
			C101.4,50.7,98.8,53.3,95.5,53.3z"/>
		<path class="st1" d="M80.6,29.5c-6.7-0.1-12.9,3.2-16.7,8.6c-3.1-1.7-6.6-2.6-10.1-2.7c-10.3,0-19.1,7.6-20.6,17.9h62.3
			c3,0,5.5-2.1,6-5.1C100.2,37.7,91.3,29.6,80.6,29.5z"/>
		<path class="st2" d="M83.6,47.4h-95.3c0-6.6-5.3-11.9-11.9-11.9V-6.2c6.6,0,11.9-5.3,11.9-11.9l95.3,0c0,6.6,5.3,11.9,11.9,11.9
			v41.7C88.9,35.5,83.6,40.8,83.6,47.4z"/>
		<g transform="translate(20.553 33.549)">
			<path class="st1" d="M60-4.1c-6.7-0.1-12.9,3.2-16.7,8.6C40.2,2.9,36.8,2,33.2,1.9c-8.1-0.1-15.4,4.6-18.8,11.9H63
				c0-6.5,5.1-11.8,11.6-11.9C70.7-1.9,65.5-4,60-4.1z"/>
			<ellipse class="st1" cx="15.3" cy="-18.9" rx="23.8" ry="26.8"/>
			<circle class="st1" cx="-20.4" cy="-18.9" r="6"/>
			<circle class="st1" cx="51.1" cy="-18.9" r="6"/>
		</g>
		<path class="st3" d="M38.9,11.6l-6,0c-1.6,0-3-1.3-3-3s1.3-3,3-3h8.9c1.6,0,3-1.3,3-3s-1.3-3-3-3l0,0h-3c0-1.6-1.3-3-3-3
			s-3,1.3-3,3c-4.9,0-8.9,4-8.9,8.9c0,4.9,4,8.9,8.9,8.9h6c1.6,0,3,1.3,3,3s-1.3,3-3,3l0,0h-8.9c-1.6,0-3,1.3-3,3s1.3,3,3,3h3
			c0,1.6,1.3,3,3,3s3-1.3,3-3c4.9,0,8.9-4,8.9-8.9C47.8,15.6,43.8,11.6,38.9,11.6z"/>
		<circle class="st4" cx="47.8" cy="56.3" r="20.9"/>
		<circle class="st5" cx="74.6" cy="50.3" r="20.9"/>
		<path class="st6" d="M74.6,29.5c-11.5,0-20.9,9.3-20.9,20.9c0,11.5,9.3,20.9,20.9,20.9c11.5,0,20.9-9.3,20.9-20.9
			c0.1-11.4-9.1-20.8-20.6-20.9C74.8,29.5,74.7,29.5,74.6,29.5z M74.6,65.2c-8.2,0-14.9-6.7-14.9-14.9c0-8.2,6.7-14.9,14.9-14.9
			c8.2,0,14.9,6.7,14.9,14.9c0.1,8.1-6.5,14.8-14.6,14.9C74.8,65.2,74.7,65.2,74.6,65.2z"/>
		<path class="st5" d="M74.6,70.9L74.6,70.9c11.3,0.2,20.6-8.8,20.8-20.1c0-0.2,0-0.3,0-0.5h-0.3c-1.5,0.1-2.7,1.2-3,2.7
			c-0.6,4.1-2.6,7.9-5.7,10.7c-2.5,2.4-5.8,4-9.2,4.5C75.8,68.2,74.6,69.4,74.6,70.9C74.6,70.9,74.6,70.9,74.6,70.9z"/>
		<path class="st7" d="M74.6,29.8L74.6,29.8C63.3,29.6,54,38.6,53.8,49.9c0,0.2,0,0.3,0,0.5h0.3c1.5-0.1,2.7-1.2,3-2.7
			c0.6-4.1,2.6-7.9,5.7-10.7c2.5-2.4,5.8-4,9.2-4.5C73.4,32.5,74.6,31.3,74.6,29.8C74.6,29.8,74.6,29.8,74.6,29.8z"/>
		<path class="st8" d="M61.8,52.4c-0.1-8.1,6.5-14.8,14.6-14.9c0.1,0,0.2,0,0.3,0c3.5,0,6.9,1.2,9.5,3.6c-5.1-6.4-14.4-7.5-20.9-2.5
			c-3.6,2.8-5.7,7.1-5.7,11.7c-0.1,4.4,1.9,8.6,5.4,11.3C62.9,59.1,61.8,55.8,61.8,52.4z"/>
		<path class="st6" d="M83.6,59.6c-0.3,0-0.7-0.1-0.9-0.3c-0.6-0.5-0.6-1.5-0.1-2c0,0,0,0,0.1-0.1c1.7-1.9,2.7-4.3,2.7-6.9
			c0-0.8,0.6-1.5,1.4-1.5c0.8,0,1.5,0.6,1.5,1.4c0,0,0,0.1,0,0.1c0,3.3-1.2,6.4-3.3,8.9C84.6,59.5,84.1,59.6,83.6,59.6z"/>
		<g transform="translate(72.192 74.654)">
			<path class="st8" d="M2.4-15.4c-1.6,0.1-2.9-1.1-3-2.6c0-0.1,0-0.2,0-0.3l0-11.9c0-1.6,1.3-3,3-3s3,1.3,3,3l0,11.9
				c0.1,1.6-1.1,2.9-2.6,3C2.7-15.4,2.5-15.4,2.4-15.4z"/>
			<path class="st8" d="M13.5-6.7C11.5-14,6.2-20-0.8-22.8c-1.3-6.8-5.4-12.7-11.3-16.4c-3.8,3.9-5.9,9.2-6,14.6
				C-18.2-13.2-9-3.8,2.5-3.8c0.1,0,0.2,0,0.3,0C6.5-3.5,10.3-4.6,13.5-6.7z"/>
		</g>
		<g transform="translate(77.073 77.994)">
			<path class="st9" d="M-12-16.3c-2.2-2.7-3.5-6-3.6-9.5c0-4.1,1.7-8,4.8-10.7c-0.5-0.8-1.1-1.5-1.8-2.1c-3.1,2.8-4.8,6.8-4.8,11
				C-17.4-23.2-15.4-19.1-12-16.3z"/>
			<path class="st9" d="M-5.4-25.9v4.2c0,1.6,1.3,3,3,3s3-1.3,3-3l0,0v-0.6C-1.3-23.8-3.3-25-5.4-25.9z"/>
		</g>
		<path class="st5" d="M85.6,67.9c-0.5-2-1.3-3.9-2.4-5.7c-2.5,1.9-5.5,2.9-8.6,3c-8.1,0.1-14.8-6.5-14.9-14.6c0-0.1,0-0.2,0-0.3
			c-0.1-4.2,1.7-8.2,4.8-11c-1.4-1.4-3-2.7-4.8-3.6c-3.8,3.9-5.9,9.2-6,14.6c-0.1,11.4,9.1,20.8,20.6,20.8c0.1,0,0.2,0,0.3,0
			C78.5,71.2,82.4,70.1,85.6,67.9z"/>
		<path class="st8" d="M84.8,65.2c-2.3,1.5-4.8,2.5-7.4,3c-1.5,0.2-2.6,1.5-2.7,3l0,0c3.9,0,7.7-1.1,11-3.3L84.8,65.2z"/>
		<path class="st6" d="M59.7,35.8c-3.8,3.9-5.9,9.2-6,14.6h0.3c1.5-0.1,2.7-1.2,3-2.7c0.6-4,2.5-7.6,5.4-10.4
			C61.5,36.9,60.6,36.4,59.7,35.8z"/>
		<circle class="st5" cx="47.8" cy="56.3" r="20.9"/>
		<path class="st8" d="M44.8,71.2c0,2,0.3,4,0.9,6h2.1c11.5,0,20.8-9.2,20.9-20.7c0-2.1-0.3-4.1-0.9-6.1h-2.1
			c-11.4-0.1-20.8,9.1-20.9,20.6C44.8,71,44.8,71.1,44.8,71.2z"/>
		<path class="st6" d="M47.8,35.5C36.3,35.5,27,44.8,27,56.3c0,11.5,9.3,20.9,20.9,20.9c11.5,0,20.9-9.3,20.9-20.9
			c0.1-11.4-9.1-20.8-20.6-20.9C48,35.5,47.9,35.5,47.8,35.5z M47.8,71.2c-8.2,0-14.9-6.7-14.9-14.9c0-8.2,6.7-14.9,14.9-14.9
			c8.2,0,14.9,6.7,14.9,14.9c0.1,8.1-6.5,14.8-14.6,14.9C48,71.2,47.9,71.2,47.8,71.2z"/>
		<path class="st5" d="M47.8,76.9L47.8,76.9c11.3,0.2,20.6-8.8,20.8-20.1c0-0.2,0-0.3,0-0.5h-0.3c-1.5,0.1-2.7,1.2-3,2.7
			c-0.6,4.1-2.6,7.9-5.7,10.7c-2.5,2.4-5.8,4-9.2,4.5C49,74.2,47.8,75.4,47.8,76.9C47.8,76.8,47.8,76.8,47.8,76.9z"/>
		<path class="st7" d="M47.8,35.8L47.8,35.8C36.5,35.5,27.2,44.5,27,55.8c0,0.2,0,0.3,0,0.5h0.3c1.5-0.1,2.7-1.2,3-2.7
			c0.6-4.1,2.6-7.9,5.7-10.7c2.5-2.4,5.8-4,9.2-4.5C46.6,38.4,47.8,37.3,47.8,35.8C47.8,35.8,47.8,35.8,47.8,35.8z"/>
		<path class="st8" d="M35,58.4c-0.1-8.1,6.5-14.8,14.6-14.9c0.1,0,0.2,0,0.3,0c3.5,0,6.9,1.2,9.5,3.6c-5.1-6.4-14.4-7.5-20.9-2.5
			c-3.6,2.8-5.7,7.1-5.7,11.7c-0.1,4.4,1.9,8.6,5.4,11.3C36.1,65,35,61.8,35,58.4z"/>
		<path class="st6" d="M56.8,65.5c-0.3,0-0.7-0.1-0.9-0.3c-0.6-0.5-0.6-1.5-0.1-2c0,0,0,0,0.1-0.1c1.7-1.9,2.7-4.3,2.7-6.9
			c0-0.8,0.6-1.5,1.4-1.5c0.8,0,1.5,0.6,1.5,1.4c0,0,0,0.1,0,0.1c0,3.3-1.2,6.4-3.3,8.9C57.8,65.5,57.3,65.6,56.8,65.5z"/>
		<path class="st8" d="M47.8,65.2c-1.6,0.1-2.9-1.1-3-2.6c0-0.1,0-0.2,0-0.3V50.3c0-1.6,1.3-3,3-3c1.6,0,3,1.3,3,3v11.9
			c0.1,1.6-1.1,2.9-2.6,3C48,65.2,47.9,65.2,47.8,65.2z"/>
		<g transform="translate(61.658 87.5)">
			<path class="st5" d="M-0.1-36.9C0.6-35,1-33.1,1.1-31.2C1.1-23-5.4-16.4-13.5-16.3c-0.1,0-0.2,0-0.3,0c-1,0-2-0.1-3-0.3v0.3
				c0,2,0.3,4,0.9,6h2.1C-2.4-10.3,7-19.6,7-31.1c0-2.1-0.3-4.1-0.9-6.1H4C2.6-37.2,1.2-37.1-0.1-36.9z"/>
			<circle class="st5" cx="1.1" cy="-13.3" r="20.9"/>
		</g>
		<path class="st6" d="M62.7,53.3c-11.5,0-20.9,9.3-20.9,20.9c0,11.5,9.3,20.9,20.9,20.9c11.5,0,20.9-9.3,20.9-20.9c0,0,0,0,0,0
			c0.1-11.4-9.2-20.8-20.6-20.8C62.9,53.3,62.8,53.3,62.7,53.3z M62.7,89.1c-8.2,0-14.9-6.7-14.9-14.9c0-8.2,6.7-14.9,14.9-14.9
			c8.2,0,14.9,6.7,14.9,14.9c0,0,0,0,0,0C77.7,82.3,71.1,89,63,89.1C62.9,89.1,62.8,89.1,62.7,89.1z"/>
		<path class="st5" d="M62.7,94.7L62.7,94.7c11.3,0.2,20.6-8.8,20.8-20.1c0-0.2,0-0.3,0-0.5h-0.3c-1.5,0.1-2.7,1.2-3,2.7
			c-0.6,4.1-2.6,7.9-5.7,10.7c-2.5,2.4-5.8,4-9.2,4.5C63.9,92,62.7,93.2,62.7,94.7C62.7,94.7,62.7,94.7,62.7,94.7z"/>
		<path class="st7" d="M62.7,53.6L62.7,53.6c-11.3-0.2-20.6,8.8-20.8,20.1c0,0.2,0,0.3,0,0.5h0.3c1.5-0.1,2.7-1.2,3-2.7
			c0.6-4.1,2.6-7.9,5.7-10.7c2.5-2.4,5.8-4,9.2-4.5C61.5,56.3,62.7,55.1,62.7,53.6C62.7,53.6,62.7,53.6,62.7,53.6z"/>
		<path class="st8" d="M49.9,76.3c-0.1-8.1,6.5-14.8,14.6-14.9c0.1,0,0.2,0,0.3,0c3.5,0,6.9,1.2,9.5,3.6c-5.1-6.4-14.4-7.5-20.9-2.5
			c-3.6,2.8-5.7,7.1-5.7,11.7c-0.1,4.4,1.9,8.6,5.4,11.3C51,82.9,49.8,79.6,49.9,76.3z"/>
		<path class="st6" d="M71.6,83.4c-0.3,0-0.7-0.1-0.9-0.3c-0.6-0.5-0.6-1.5-0.1-2c0,0,0,0,0.1-0.1c1.7-1.9,2.7-4.3,2.7-6.9
			c0-0.8,0.7-1.5,1.5-1.5c0.8,0,1.5,0.7,1.5,1.5c0,3.3-1.2,6.4-3.3,8.9C72.7,83.3,72.2,83.4,71.6,83.4z"/>
		<path class="st8" d="M62.7,83.1c-1.6,0.1-2.9-1.1-3-2.6c0-0.1,0-0.2,0-0.3V68.2c0-1.6,1.3-3,3-3c1.6,0,3,1.3,3,3v11.9
			c0.1,1.6-1.1,2.9-2.6,3C62.9,83.1,62.8,83.1,62.7,83.1z"/>
	</g>
</g>
</svg>
