<svg xmlns="http://www.w3.org/2000/svg" width="111" height="111" viewBox="0 0 111 111"><defs><style>.a,.d{fill:none;}.a{stroke:#6170d6;stroke-width:5px;}.b{fill:#6170d6;}.c{stroke:none;}</style></defs><g transform="translate(17 -10.409)"><g class="a" transform="translate(-17 10.409)"><circle class="c" cx="55.5" cy="55.5" r="55.5"/><circle class="d" cx="55.5" cy="55.5" r="53"/></g><g transform="translate(21.063 34.03)"><g transform="translate(0 0)"><path class="b" d="M174.214,89.459H149.376a.442.442,0,0,0-.416.3L137.38,125.189a.442.442,0,0,0,.257.57.436.436,0,0,0,.146.028h10.554l-8.123,31.584a.442.442,0,0,0,.741.442l32.182-37.38a.442.442,0,0,0-.325-.728H159.1L174.591,90.1a.431.431,0,0,0,.065-.195A.442.442,0,0,0,174.214,89.459Z" transform="translate(-137.351 -89.459)"/><path class="b" d="M252.159,90.819Z" transform="translate(-214.854 -90.377)"/></g></g></g></svg>