<svg xmlns="http://www.w3.org/2000/svg" width="37.823" height="37.823" viewBox="0 0 37.823 37.823"><defs><style>.a{fill:#f9ae08;}</style></defs><path class="a" d="M37.487,34.916,24.393,16.256a1.841,1.841,0,0,0-.4-.416V11.82h9.234a1.108,1.108,0,0,0,.941-1.693L32.23,7.018,34.164,3.91a1.108,1.108,0,0,0-.941-1.693H23.989V1.108a1.108,1.108,0,0,0-2.216,0V15.84a1.843,1.843,0,0,0-.4.416l-6.163,8.783-2.376-3.3a1.847,1.847,0,0,0-3,0L.35,34.9a1.847,1.847,0,0,0,1.5,2.927H35.975a1.847,1.847,0,0,0,1.512-2.908Zm-26.99.691,7.128-10.158,1.826,1.7a1.108,1.108,0,0,0,1.511,0l1.918-1.787L24.8,27.151a1.108,1.108,0,0,0,1.511,0l1.827-1.7,7.128,10.158Zm-2.222-.692a1.849,1.849,0,0,0-.3.692H2.57l8.762-12.153,2.527,3.5ZM22.881,17.96l3.97,5.658-1.3,1.208-1.919-1.788a1.108,1.108,0,0,0-1.511,0l-1.918,1.787-1.3-1.208ZM31.229,4.432l-1.245,2a1.108,1.108,0,0,0,0,1.171l1.245,2h-7.24V4.432Z" transform="translate(0)"/></svg>