<svg xmlns="http://www.w3.org/2000/svg" xmlns:xlink="http://www.w3.org/1999/xlink" width="118" height="118" viewBox="0 0 118 118"><defs><style>.a{fill:#fff;}.b{fill:#f9ae08;}.c{filter:url(#a);}</style><filter id="a" x="0" y="0" width="118" height="118" filterUnits="userSpaceOnUse"><feOffset dy="3" input="SourceAlpha"/><feGaussianBlur stdDeviation="8" result="b"/><feFlood flood-opacity="0.09"/><feComposite operator="in" in2="b"/><feComposite in="SourceGraphic"/></filter></defs><g transform="translate(-624 -3153)"><g class="c" transform="matrix(1, 0, 0, 1, 624, 3153)"><circle class="a" cx="35" cy="35" r="35" transform="translate(24 21)"/></g><g transform="translate(657 3183)"><path class="b" d="M88,109.262a1,1,0,0,0,1,1h6.228a1,1,0,0,0,1-1v-1.931a15.6,15.6,0,0,0,3.739-1.549l1.363,1.363a1,1,0,0,0,1.409,0l4.4-4.405a1,1,0,0,0,0-1.409l-1.362-1.362a15.6,15.6,0,0,0,1.549-3.739h1.924a1,1,0,0,0,1-1V89.006a1,1,0,0,0-1-1h-1.924a15.6,15.6,0,0,0-1.549-3.738l1.354-1.354a1,1,0,0,0,0-1.409l-4.406-4.4a1,1,0,0,0-1.409,0l-1.353,1.353a15.6,15.6,0,0,0-3.739-1.549V75a1,1,0,0,0-1-1H89a1,1,0,0,0-1,1V76.91a15.585,15.585,0,0,0-3.738,1.549l-1.353-1.353a1,1,0,0,0-1.409,0l-4.405,4.4a1,1,0,0,0,0,1.409l1.354,1.354A15.6,15.6,0,0,0,76.9,88.01h-1.92a1,1,0,0,0-1,1l0,6.228a1,1,0,0,0,1,1H76.9a15.6,15.6,0,0,0,1.549,3.739l-1.362,1.362a1,1,0,0,0,0,1.409l4.4,4.405a1,1,0,0,0,.7.292h0a1,1,0,0,0,.7-.292l1.363-1.363A15.612,15.612,0,0,0,88,107.331Zm-3.348-5.575a1,1,0,0,0-1.245.132L82.2,105.032l-2.994-3,1.212-1.212a1,1,0,0,0,.132-1.245,13.634,13.634,0,0,1-1.887-4.554,1,1,0,0,0-.974-.787H75.977l0-4.236h1.709a1,1,0,0,0,.974-.787,13.635,13.635,0,0,1,1.887-4.553,1,1,0,0,0-.132-1.245l-1.2-1.2,3-2.994,1.2,1.2a1,1,0,0,0,1.245.132,13.629,13.629,0,0,1,4.553-1.887A1,1,0,0,0,90,77.693v-1.7h4.236v1.7a1,1,0,0,0,.787.974,13.64,13.64,0,0,1,4.553,1.887,1,1,0,0,0,1.245-.132l1.2-1.2,3,2.994-1.2,1.2a1,1,0,0,0-.132,1.245,13.644,13.644,0,0,1,1.887,4.553,1,1,0,0,0,.974.787h1.712v4.236h-1.712a1,1,0,0,0-.974.787,13.632,13.632,0,0,1-1.887,4.553,1,1,0,0,0,.132,1.245l1.212,1.212-2.994,3-1.213-1.212a1,1,0,0,0-1.245-.132,13.644,13.644,0,0,1-4.553,1.887,1,1,0,0,0-.787.974v1.719H90v-1.719a1,1,0,0,0-.787-.974,13.636,13.636,0,0,1-4.553-1.887Zm0,0" transform="translate(-66.615 -66.629)"/><path class="b" d="M189.833,181.6a8.231,8.231,0,1,0-8.231,8.231A8.24,8.24,0,0,0,189.833,181.6Zm-14.469,0a6.238,6.238,0,1,1,6.238,6.238A6.245,6.245,0,0,1,175.363,181.6Zm0,0" transform="translate(-156.102 -156.102)"/></g></g></svg>