<svg xmlns="http://www.w3.org/2000/svg" width="167.587" height="157.456" viewBox="0 0 167.587 157.456">
  <g id="time" transform="translate(0 0)">
    <g id="Group_3474" data-name="Group 3474">
      <g id="Group">
        <path id="Path_3138" data-name="Path 3138" d="M9.477,77.585C-6.4,23.183-13.294-14,80.817,5.046s37.053,73.587,19.218,91.721S25.354,131.987,9.477,77.585Z" transform="translate(0 52.165) rotate(-23)" fill="#dee0ef"/>
      </g>
      <g id="shield" transform="translate(34.246 33.32)">
        <path id="Path_3657" data-name="Path 3657" d="M110.846,4.46A123.728,123.728,0,0,0,45,4.46a7.655,7.655,0,0,0-5.661,7.374V45.267A46.8,46.8,0,0,0,76.394,91.043a7.367,7.367,0,0,0,3.066,0,46.8,46.8,0,0,0,37.05-45.777V11.834a7.654,7.654,0,0,0-5.663-7.374" transform="translate(-39.342 0)" fill="#4452b8"/>
        <path id="Path_3658" data-name="Path 3658" d="M121.743,125.456A37.466,37.466,0,0,1,92.675,89.084V57.1a113.981,113.981,0,0,1,58.137,0V89.082a37.467,37.467,0,0,1-29.068,36.374" transform="translate(-83.16 -43.816)" fill="#6170d6"/>
        <path id="Path_3659" data-name="Path 3659" d="M182.1,155.9a4.761,4.761,0,0,0-6.727,0l-16.986,16.99-6.771-6.777a4.758,4.758,0,1,0-6.727,6.731l10.134,10.135a4.763,4.763,0,0,0,6.729,0L182.1,162.631a4.755,4.755,0,0,0,0-6.727" transform="translate(-124.913 -126.946)" fill="#fff"/>
        <g id="medical-mask" transform="matrix(0.978, -0.208, 0.208, 0.978, 37.319, 59.997)">
          <path id="Path_3660" data-name="Path 3660" d="M11.3,19.237a8.832,8.832,0,0,1-1.614-.161,8.071,8.071,0,0,1,0-15.816,8.964,8.964,0,0,1,1.527-.153L9.683,0a11.281,11.281,0,0,0,1,22.433,3.9,3.9,0,0,0,.613.032,1.614,1.614,0,0,0,0-3.228Z" transform="translate(0 3.324)" fill="#e0f4ff"/>
          <path id="Path_3661" data-name="Path 3661" d="M3.228,0,1.975,3.135a9.389,9.389,0,0,1,1.253.125,8.071,8.071,0,0,1,0,15.816,8.831,8.831,0,0,1-1.614.161,1.614,1.614,0,1,0,0,3.228,3.9,3.9,0,0,0,.613-.032A11.273,11.273,0,0,0,12.911,11.168,11.3,11.3,0,0,0,3.228,0Z" transform="translate(42.176 3.324)" fill="#eef6ff"/>
          <g id="Group_3454" data-name="Group 3454" transform="translate(9.683 0)">
            <path id="Path_3662" data-name="Path 3662" d="M34.106,3.2H29.06A11.6,11.6,0,0,1,22.443,1.42a8.105,8.105,0,0,0-9.166,0A11.6,11.6,0,0,1,6.66,3.2H1.614A8.844,8.844,0,0,0,0,3.324V24.176A1.551,1.551,0,0,0,.549,25.37c.032.032.194.161.452.387,1.743,1.452,8.6,6.488,16.859,6.488s15.117-5.035,16.859-6.488c.258-.226.42-.355.452-.387a1.551,1.551,0,0,0,.548-1.194V3.324A8.845,8.845,0,0,0,34.106,3.2Z" fill="#f9ae08"/>
          </g>
          <path id="Path_3663" data-name="Path 3663" d="M17.86,3.324V24.176a1.551,1.551,0,0,1-.549,1.194c-.032.032-.194.161-.452.387C15.117,27.21,8.263,32.245,0,32.245V0A8.088,8.088,0,0,1,4.583,1.42,11.6,11.6,0,0,0,11.2,3.2h5.046A8.843,8.843,0,0,1,17.86,3.324Z" transform="translate(27.543 0)" fill="#f99308"/>
          <g id="Group_3457" data-name="Group 3457" transform="translate(16.242 6.391)">
            <g id="Group_3456" data-name="Group 3456">
              <g id="Group_3455" data-name="Group 3455">
                <path id="Path_3664" data-name="Path 3664" d="M22.6,4.938a1.646,1.646,0,0,1-1.614,1.517c-.032,0-.065-.032-.1-.032a20.268,20.268,0,0,1-9.554-2.873.032.032,0,0,0-.032.032,20.988,20.988,0,0,1-9.586,2.84A1.56,1.56,0,0,1,0,4.938,1.582,1.582,0,0,1,1.521,3.228,17.6,17.6,0,0,0,10.43.323,1.331,1.331,0,0,1,11.3,0a1.751,1.751,0,0,1,1,.323,16.823,16.823,0,0,0,8.779,2.905A1.582,1.582,0,0,1,22.6,4.938Z" fill="#ffc340"/>
              </g>
            </g>
          </g>
          <g id="Group_3460" data-name="Group 3460" transform="translate(19.474 16.106)">
            <g id="Group_3459" data-name="Group 3459">
              <g id="Group_3458" data-name="Group 3458">
                <path id="Path_3665" data-name="Path 3665" d="M16.139,1.614a1.6,1.6,0,0,1-1.614,1.614H1.614A1.6,1.6,0,0,1,0,1.614,1.6,1.6,0,0,1,1.614,0H14.525A1.6,1.6,0,0,1,16.139,1.614Z" fill="#ffc340"/>
              </g>
            </g>
          </g>
          <g id="Group_3463" data-name="Group 3463" transform="translate(22.702 22.562)">
            <g id="Group_3462" data-name="Group 3462">
              <g id="Group_3461" data-name="Group 3461">
                <path id="Path_3666" data-name="Path 3666" d="M9.683,1.614A1.6,1.6,0,0,1,8.069,3.228H1.614A1.6,1.6,0,0,1,0,1.614,1.6,1.6,0,0,1,1.614,0H8.069A1.6,1.6,0,0,1,9.683,1.614Z" fill="#ffc340"/>
              </g>
            </g>
          </g>
          <path id="Path_3667" data-name="Path 3667" d="M4.842,1.614A1.6,1.6,0,0,1,3.228,3.228H0V0H3.228A1.6,1.6,0,0,1,4.842,1.614Z" transform="translate(27.543 22.562)" fill="#f9ae08"/>
          <path id="Path_3668" data-name="Path 3668" d="M8.069,1.614A1.6,1.6,0,0,1,6.455,3.228H0V0H6.455A1.6,1.6,0,0,1,8.069,1.614Z" transform="translate(27.543 16.106)" fill="#f9ae08"/>
          <path id="Path_3669" data-name="Path 3669" d="M11.3,4.938A1.646,1.646,0,0,1,9.683,6.455c-.032,0-.065-.032-.1-.032A20.268,20.268,0,0,1,.032,3.55.032.032,0,0,0,0,3.583V0A1.751,1.751,0,0,1,1,.323,16.823,16.823,0,0,0,9.78,3.228,1.582,1.582,0,0,1,11.3,4.938Z" transform="translate(27.543 6.391)" fill="#f9ae08"/>
        </g>
      </g>
    </g>
  </g>
</svg>
