<?xml version="1.0" encoding="utf-8"?>
<!-- Generator: Adobe Illustrator 24.3.0, SVG Export Plug-In . SVG Version: 6.00 Build 0)  -->
<svg version="1.1" id="Layer_1" xmlns="http://www.w3.org/2000/svg" xmlns:xlink="http://www.w3.org/1999/xlink" x="0px" y="0px"
	 viewBox="0 0 141.7 129.3" style="enable-background:new 0 0 141.7 129.3;" xml:space="preserve">
<style type="text/css">
	.st0{fill:#DEE0EF;}
	.st1{fill:#6170D6;}
	.st2{fill:#4452B8;}
	.st3{fill:#F4FBFF;}
	.st4{fill:#DAF1F4;}
	.st5{fill:#F9AE08;}
	.st6{fill:#F99308;}
	.st7{fill:#365E7D;}
</style>
<g id="time" transform="translate(-264.307 -1155.246)">
	<g id="Group">
		<path id="Path_3138" class="st0" d="M358,1262.3c-55.5,16.7-93.7,24.9-79.2-51.8c14.5-76.6,74.2-35,94-22S413.5,1245.6,358,1262.3
			z"/>
	</g>
	<g id="time-management" transform="translate(279 1164)">
		<circle id="Ellipse_343" class="st1" cx="47" cy="48.7" r="40.8"/>
		<path id="Path_3641" class="st2" d="M87.8,49.4C88.2,26.9,70.2,8.3,47.7,7.9c-0.2,0-0.4,0-0.7,0c-0.9,0-1.8,0-2.7,0.1
			c16.3,1.1,30.4,11.7,35.8,27.1c0.7,2-0.4,4.1-2.3,4.8c-0.5,0.2-0.9,0.2-1.4,0.2c-0.1,0-0.2,0-0.3,0h-6.2c-2.4,0-4.7,1.3-5.8,3.5
			l-2.2,4l-4.4,2.1L53,48.9c-2.4-0.4-4.8,0.5-6.3,2.4l-3.9,4.9c-1.5,1.9-1.9,4.5-0.9,6.7l1.8,4.2l-1.1,4.7l-3.5,3
			c-1.8,1.6-2.6,4.1-2.1,6.4l1.4,6.1c0.1,0.5,0.3,1,0.5,1.5c1.8,0.4,3.6,0.6,5.4,0.7l0,0c14.4,1,28.3-5.8,36.4-17.7
			C85.6,64.7,87.5,57.7,87.8,49.4L87.8,49.4z"/>
		<circle id="Ellipse_344" class="st3" cx="47" cy="48.7" r="31.3"/>
		<path id="Path_3642" class="st4" d="M78.2,45.5c0,0,0-0.1,0-0.1C76.4,29.4,63,17.4,47,17.4c-1,0-2,0-3.1,0.1
			c11.3,1.1,21.2,8.3,25.7,18.7c0.7,1.6,0,3.4-1.6,4.1c-0.1,0-0.2,0.1-0.3,0.1c-1.6,0.5-2.9,1.6-3.7,3.1l-2.2,4l-4.4,2.1L53,48.9
			c-2.4-0.4-4.8,0.5-6.3,2.4l-3.9,4.9c-1.5,1.9-1.9,4.5-0.9,6.7l1.8,4.2l-1.1,4.7l-3.5,3c-1.1,1-1.8,2.2-2.1,3.6
			c16.4,5.5,34.2-3.3,39.7-19.8C78.2,54.5,78.7,49.9,78.2,45.5L78.2,45.5z"/>
		<g id="Group_3445" transform="translate(15.852 15.852)">
			<g id="Group_3440" transform="translate(28.38)">
				<path id="Path_3643" class="st2" d="M2.8,11.2c-0.8,0-1.5-0.7-1.5-1.5v0V7.6c0-0.8,0.7-1.5,1.5-1.5s1.5,0.7,1.5,1.5l0,0v2.1
					C4.3,10.6,3.6,11.2,2.8,11.2L2.8,11.2z"/>
			</g>
			<g id="Group_3441" transform="translate(46.772 8.312)">
				<path id="Path_3644" class="st2" d="M0.7,9.7c-0.8,0-1.5-0.7-1.5-1.5c0-0.4,0.2-0.8,0.4-1.1l1.5-1.5c0.6-0.6,1.5-0.6,2.1,0
					s0.6,1.5,0,2.1L1.8,9.3C1.5,9.5,1.1,9.7,0.7,9.7L0.7,9.7z"/>
			</g>
			<g id="Group_3442" transform="translate(8.312 46.772)">
				<path id="Path_3645" class="st2" d="M5,5.5C4.2,5.5,3.5,4.8,3.5,4c0-0.4,0.2-0.8,0.4-1.1l1.5-1.5C6,0.8,7,0.8,7.5,1.4
					s0.6,1.5,0,2.1L6,5C5.8,5.3,5.4,5.5,5,5.5z"/>
			</g>
			<g id="Group_3443" transform="translate(0 28.38)">
				<path id="Path_3646" class="st2" d="M8,6H5.9C5.1,6,4.4,5.3,4.4,4.5S5.1,3,5.9,3l0,0H8c0.8,0,1.5,0.7,1.5,1.5S8.8,6,8,6z"/>
			</g>
			<g id="Group_3444" transform="translate(8.312 8.312)">
				<path id="Path_3647" class="st2" d="M6.5,9.7c-0.4,0-0.8-0.2-1.1-0.4L3.9,7.8c-0.6-0.6-0.6-1.5,0-2.1s1.5-0.6,2.1,0l1.5,1.5
					c0.6,0.6,0.6,1.5,0,2.1C7.3,9.5,6.9,9.7,6.5,9.7L6.5,9.7z"/>
			</g>
		</g>
		<g id="Group_3446" transform="translate(44.231 29.068)">
			<path id="Path_3648" class="st2" d="M2.8,21.8c-0.8,0-1.5-0.7-1.5-1.5l0,0V6.2c0-0.8,0.7-1.5,1.5-1.5s1.5,0.7,1.5,1.5v10.1L7,13
				c0.5-0.6,1.5-0.7,2.1-0.2c0.6,0.5,0.7,1.5,0.2,2.1l-5.4,6.3C3.6,21.6,3.2,21.8,2.8,21.8L2.8,21.8z"/>
		</g>
		<circle id="Ellipse_345" class="st3" cx="73" cy="76.3" r="16.2"/>
		<path id="Path_3649" class="st4" d="M73,60.1c-1.5,0-3,0.2-4.4,0.6c8.6,2.4,13.5,11.4,11.1,20c-1.5,5.4-5.7,9.6-11.1,11.1
			c8.6,2.5,17.5-2.5,20-11.1c2.5-8.6-2.5-17.5-11.1-20C76,60.3,74.5,60.1,73,60.1L73,60.1z"/>
		<path id="Path_3650" class="st5" d="M65.3,50.1l2.5-4.5c0.4-0.8,1.2-1.3,2.1-1.3h6.2c0.9,0,1.7,0.5,2.1,1.3l2.5,4.5
			c0.2,0.4,0.6,0.8,1.1,1l5.4,2.6c0.5,0.2,1,0.3,1.5,0.2l5.1-0.9c0.9-0.2,1.8,0.2,2.3,0.9l3.9,4.9c0.6,0.7,0.7,1.6,0.3,2.5l-2,4.7
			c-0.2,0.5-0.2,1-0.1,1.5l1.3,5.8c0.1,0.5,0.4,0.9,0.8,1.3l3.9,3.4c0.7,0.6,1,1.5,0.8,2.4l-1.4,6.1c-0.2,0.9-0.9,1.6-1.7,1.8
			l-5,1.4c-0.5,0.1-0.9,0.4-1.2,0.8l-3.7,4.7c-0.3,0.4-0.5,0.9-0.5,1.4l-0.2,5.2c0,0.9-0.6,1.7-1.4,2.1l-5.6,2.7
			c-0.8,0.4-1.8,0.3-2.5-0.2l-4.2-3c-0.4-0.3-0.9-0.5-1.4-0.5h-6c-0.5,0-1,0.2-1.4,0.5l-4.2,3c-0.7,0.5-1.7,0.6-2.5,0.2l-5.6-2.7
			c-0.8-0.4-1.3-1.2-1.4-2.1l-0.2-5.2c0-0.5-0.2-1-0.5-1.4l-3.7-4.7c-0.3-0.4-0.8-0.7-1.2-0.8l-5-1.4c-0.9-0.2-1.5-0.9-1.7-1.8
			l-1.4-6.1c-0.2-0.9,0.1-1.8,0.8-2.4l3.9-3.4c0.4-0.3,0.7-0.8,0.8-1.3l1.3-5.8c0.1-0.5,0.1-1-0.1-1.5l-2-4.7
			c-0.3-0.8-0.2-1.8,0.3-2.5l3.9-4.9c0.6-0.7,1.5-1,2.3-0.9l5.1,0.9c0.5,0.1,1,0,1.5-0.2l5.4-2.6C64.7,50.9,65,50.5,65.3,50.1z
			 M60.6,76.2c0,6.8,5.5,12.4,12.4,12.4s12.4-5.5,12.4-12.4S79.8,63.9,73,63.9h0C66.2,63.9,60.6,69.4,60.6,76.2z"/>
		<g id="Group_3447" transform="translate(72.536 40.883)">
			<path id="Path_3651" class="st6" d="M0.3,4.7l2.5,4.5c0.2,0.4,0.6,0.8,1.1,1l5.4,2.6c0.5,0.2,1,0.3,1.5,0.2l3.2-0.6l-4.6-2.2
				c-0.5-0.2-0.8-0.6-1.1-1L5.7,4.7C5.3,3.9,4.5,3.4,3.6,3.4h-5.4C-0.9,3.4-0.1,3.9,0.3,4.7z"/>
			<path id="Path_3652" class="st6" d="M31.6,37.1l-3.9-3.4c-0.4-0.3-0.7-0.8-0.8-1.3l-1.3-5.8c-0.1-0.5-0.1-1,0.1-1.5l2-4.7
				c0.3-0.8,0.2-1.8-0.3-2.5L23.5,13c-0.6-0.7-1.5-1-2.3-0.9l-3.3,0.6c0.1,0.1,0.2,0.2,0.3,0.3l3.9,4.9c0.6,0.7,0.7,1.6,0.3,2.5
				l-2,4.7c-0.2,0.5-0.2,1-0.1,1.5l1.3,5.8c0.1,0.5,0.4,0.9,0.8,1.3l3.9,3.4c0.7,0.6,1,1.5,0.8,2.4l-1.4,6.1
				c-0.2,0.9-0.9,1.6-1.7,1.8l-5,1.4c-0.5,0.1-0.9,0.4-1.2,0.8l-3.7,4.7c-0.3,0.4-0.5,0.9-0.5,1.4l-0.2,5.2c0,0.9-0.6,1.7-1.4,2.1
				l-3.7,1.8l1,0.7c0.7,0.5,1.7,0.6,2.5,0.2l5.6-2.7c0.8-0.4,1.3-1.2,1.4-2.1l0.2-5.2c0-0.5,0.2-1,0.5-1.4l3.7-4.7
				c0.3-0.4,0.8-0.7,1.2-0.8l5-1.4c0.9-0.2,1.5-0.9,1.7-1.8l1.4-6.1C32.5,38.6,32.2,37.7,31.6,37.1z"/>
		</g>
		<g id="Group_3448" transform="translate(69.794 61.253)">
			<path id="Path_3653" class="st7" d="M3.2,10.6H0c-0.8,0-1.5-0.7-1.5-1.5c0-0.8,0.7-1.5,1.5-1.5h1.7V2.6c0-0.8,0.7-1.5,1.5-1.5
				c0.8,0,1.5,0.7,1.5,1.5v6.4C4.7,9.9,4,10.6,3.2,10.6C3.2,10.6,3.2,10.6,3.2,10.6z"/>
		</g>
		<g id="Group_3449" transform="translate(73.435 82.312)">
			<path id="Path_3654" class="st7" d="M-0.4,7.8c-0.8,0-1.5-0.7-1.5-1.5v-6c0-0.8,0.7-1.5,1.5-1.5h2.6c0.8,0,1.5,0.7,1.5,1.5
				c0,0.8-0.7,1.5-1.5,1.5H1v4.5C1,7.1,0.4,7.8-0.4,7.8L-0.4,7.8z"/>
		</g>
		<g id="Group_3450" transform="translate(59.536 75.152)">
			<path id="Path_3655" class="st7" d="M7.5,2.6L7.5,2.6H1.1c-0.8,0-1.5-0.7-1.5-1.5c0-0.8,0.7-1.5,1.5-1.5l0,0l6.4,0
				C8.3-0.4,9,0.3,9,1.1C9,1.9,8.3,2.6,7.5,2.6L7.5,2.6z"/>
		</g>
		<g id="Group_3451" transform="translate(76.784 72.261)">
			<path id="Path_3656" class="st7" d="M8.6,5.5h-9.4c-0.8,0-1.5-0.7-1.5-1.5V1.4c0-0.8,0.7-1.5,1.5-1.5c0.8,0,1.5,0.7,1.5,1.5v1.1
				h7.9c0.8,0,1.5,0.7,1.5,1.5C10.1,4.8,9.4,5.5,8.6,5.5L8.6,5.5z"/>
		</g>
	</g>
</g>
</svg>
