<svg xmlns="http://www.w3.org/2000/svg" xmlns:xlink="http://www.w3.org/1999/xlink" width="118" height="118" viewBox="0 0 118 118"><defs><style>.a{fill:#fff;}.b{fill:#f9ae08;}.c{filter:url(#a);}</style><filter id="a" x="0" y="0" width="118" height="118" filterUnits="userSpaceOnUse"><feOffset dy="3" input="SourceAlpha"/><feGaussianBlur stdDeviation="8" result="b"/><feFlood flood-opacity="0.09"/><feComposite operator="in" in2="b"/><feComposite in="SourceGraphic"/></filter></defs><g transform="translate(-624 -2104)"><g class="c" transform="matrix(1, 0, 0, 1, 624, 2104)"><circle class="a" cx="35" cy="35" r="35" transform="translate(24 21)"/></g><g transform="translate(663 2124.544)"><g transform="translate(4.212 28.111)"><path class="b" d="M85.223,169.48l-4.344-6.707a1.812,1.812,0,0,0-1.527-.83H60.189a1.813,1.813,0,0,0-1.525.828l-4.357,6.708a1.823,1.823,0,0,0,.167,2.2L68.4,187.32a1.821,1.821,0,0,0,1.358.609h0a1.821,1.821,0,0,0,1.358-.609l13.933-15.642A1.823,1.823,0,0,0,85.223,169.48Zm-6.75-5.978L74.82,169.15,71.165,163.5Zm-5.086,6.3H66.139l3.624-5.6Zm-5.026-6.3-3.645,5.633L61.073,163.5Zm-8.731.642,3.663,5.662h-7.34Zm-3.348,7.222H64.13l4.15,13.469Zm13.481,12.986-4-12.986h8Zm1.483.483,4.15-13.47h7.849Zm5.007-15.029,3.659-5.658,3.664,5.658Z" transform="translate(-54.014 -161.942)"/></g><g transform="translate(0 35.975)"><path class="b" d="M2.365,262.793H.78a.78.78,0,0,0,0,1.56H2.365a.78.78,0,0,0,0-1.56Z" transform="translate(0 -262.793)"/></g><g transform="translate(36.779 35.975)"><path class="b" d="M474.032,262.793h-1.586a.78.78,0,1,0,0,1.56h1.586a.78.78,0,1,0,0-1.56Z" transform="translate(-471.667 -262.793)"/></g><g transform="translate(30.166 22.415)"><path class="b" d="M390.779,89.126a.78.78,0,0,0-1.1,0l-2.59,2.59a.78.78,0,0,0,1.1,1.1l2.59-2.59A.78.78,0,0,0,390.779,89.126Z" transform="translate(-386.857 -88.897)"/></g><g transform="translate(5.642 22.401)"><path class="b" d="M76.28,91.537l-2.59-2.59a.78.78,0,0,0-1.1,1.1l2.59,2.59a.78.78,0,0,0,1.1-1.1Z" transform="translate(-72.358 -88.718)"/></g><g transform="translate(19.202 16.793)"><path class="b" d="M247.034,16.793a.78.78,0,0,0-.78.78v5.082a.78.78,0,0,0,1.56,0V17.573A.78.78,0,0,0,247.034,16.793Z" transform="translate(-246.254 -16.793)"/></g><g transform="translate(19.202 24.512)"><path class="b" d="M247.581,116.018a.779.779,0,1,0,.229.551A.785.785,0,0,0,247.581,116.018Z" transform="translate(-246.25 -115.79)"/></g></g></g></svg>